<?xml version="1.0" encoding="UTF-8" standalone="no"?>
<svg
   xmlns:dc="http://purl.org/dc/elements/1.1/"
   xmlns:cc="http://creativecommons.org/ns#"
   xmlns:rdf="http://www.w3.org/1999/02/22-rdf-syntax-ns#"
   xmlns:svg="http://www.w3.org/2000/svg"
   xmlns="http://www.w3.org/2000/svg"
   xmlns:sodipodi="http://sodipodi.sourceforge.net/DTD/sodipodi-0.dtd"
   xmlns:inkscape="http://www.inkscape.org/namespaces/inkscape"
   viewBox="0 0 104 104.0145"
   x="0px"
   y="0px"
   version="1.1"
   id="svg22"
   sodipodi:docname="build-android-app.svg"
   width="104"
   height="104.0145"
   inkscape:version="1.0.1 (3bc2e813f5, 2020-09-07)">
  <metadata
     id="metadata28">
    <rdf:RDF>
      <cc:Work
         rdf:about="">
        <dc:format>image/svg+xml</dc:format>
        <dc:type
           rdf:resource="http://purl.org/dc/dcmitype/StillImage" />
        <dc:title>most_search2BL</dc:title>
      </cc:Work>
    </rdf:RDF>
  </metadata>
  <defs
     id="defs26" />
  <sodipodi:namedview
     pagecolor="#ffffff"
     bordercolor="#666666"
     borderopacity="1"
     objecttolerance="10"
     gridtolerance="10"
     guidetolerance="10"
     inkscape:pageopacity="0"
     inkscape:pageshadow="2"
     inkscape:window-width="1920"
     inkscape:window-height="1002"
     id="namedview24"
     showgrid="false"
     fit-margin-top="0"
     fit-margin-left="0"
     fit-margin-right="0"
     fit-margin-bottom="0"
     inkscape:zoom="5.11875"
     inkscape:cx="34.147368"
     inkscape:cy="55.197232"
     inkscape:window-x="0"
     inkscape:window-y="41"
     inkscape:window-maximized="1"
     inkscape:current-layer="svg22" />
  <title
     id="title2">most_search2BL</title>
  <g
     id="g16"
     transform="translate(-12,-11.985494)"
     style="fill:#cacaca;fill-opacity:1">
    <path
       d="M 94,53 H 34 a 2,2 0 0 0 -2,2 v 44 a 2,2 0 0 0 2,2 h 5 v 5 a 10,10 0 0 0 20,0 v -5 h 10 v 5 a 10,10 0 0 0 20,0 v -5 h 5 a 2,2 0 0 0 2,-2 V 55 a 2,2 0 0 0 -2,-2 z m -2,44 h -5 a 2,2 0 0 0 -2,2 v 7 a 6,6 0 0 1 -12,0 V 99 A 2,2 0 0 0 71,97 H 57 a 2,2 0 0 0 -2,2 v 7 a 6,6 0 0 1 -12,0 V 99 A 2,2 0 0 0 41,97 H 36 V 57 h 56 z"
       id="path4"
       style="fill:#cacaca;fill-opacity:1" />
    <path
       d="M 96.24,12.81 A 6,6 0 0 0 88,15 l -4.85,8.4 a 32,32 0 0 0 -38.38,0 L 40,15 a 6,6 0 0 0 -5.19,-3 5.92,5.92 0 0 0 -3,0.81 A 6,6 0 0 0 29.57,21 L 36.4,32.83 A 31.77,31.77 0 0 0 32,49 2,2 0 0 0 34,51 H 94 A 2,2 0 0 0 96,49 31.77,31.77 0 0 0 91.6,32.83 L 98.43,21 v 0 A 6,6 0 0 0 96.24,12.81 Z M 95,19 87.54,31.86 a 2,2 0 0 0 0,2.08 A 27.82,27.82 0 0 1 91.93,47 H 36.07 a 27.78,27.78 0 0 1 4.34,-13.06 2,2 0 0 0 0.05,-2.08 L 33,19 A 2,2 0 0 1 33.75,16.26 2.05,2.05 0 0 1 36.5,17 l 6,10.43 a 2,2 0 0 0 3,0.5 28,28 0 0 1 36.86,0 2,2 0 0 0 3,-0.5 L 91.5,17 A 2,2 0 0 1 94.23,16.27 2,2 0 0 1 95,19 Z"
       id="path6"
       style="fill:#cacaca;fill-opacity:1" />
    <circle
       cx="52.5"
       cy="38"
       r="3"
       id="circle8"
       style="fill:#cacaca;fill-opacity:1" />
    <circle
       cx="75.5"
       cy="38"
       r="3"
       id="circle10"
       style="fill:#cacaca;fill-opacity:1" />
    <path
       d="m 108,53 a 8,8 0 0 0 -8,8 v 20 a 8,8 0 0 0 16,0 V 61 a 8,8 0 0 0 -8,-8 z m 4,28 a 4,4 0 0 1 -8,0 V 61 a 4,4 0 0 1 8,0 z"
       id="path12"
       style="fill:#cacaca;fill-opacity:1" />
    <path
       d="m 20,53 a 8,8 0 0 0 -8,8 v 20 a 8,8 0 0 0 16,0 V 61 a 8,8 0 0 0 -8,-8 z m 4,28 a 4,4 0 0 1 -8,0 V 61 a 4,4 0 0 1 8,0 z"
       id="path14"
       style="fill:#cacaca;fill-opacity:1" />
  </g>
</svg>
