<?xml version="1.0" encoding="UTF-8" standalone="no"?>
<svg
   xmlns:dc="http://purl.org/dc/elements/1.1/"
   xmlns:cc="http://creativecommons.org/ns#"
   xmlns:rdf="http://www.w3.org/1999/02/22-rdf-syntax-ns#"
   xmlns:svg="http://www.w3.org/2000/svg"
   xmlns="http://www.w3.org/2000/svg"
   xmlns:sodipodi="http://sodipodi.sourceforge.net/DTD/sodipodi-0.dtd"
   xmlns:inkscape="http://www.inkscape.org/namespaces/inkscape"
   version="1.1"
   x="0px"
   y="0px"
   viewBox="0 0 98.459076 94.699997"
   enable-background="new 0 0 100 100"
   xml:space="preserve"
   id="svg8"
   sodipodi:docname="create-app-and-session.svg"
   width="98.459076"
   height="94.699997"
   inkscape:version="1.0.1 (3bc2e813f5, 2020-09-07)"><metadata
     id="metadata14"><rdf:RDF><cc:Work
         rdf:about=""><dc:format>image/svg+xml</dc:format><dc:type
           rdf:resource="http://purl.org/dc/dcmitype/StillImage" /><dc:title></dc:title></cc:Work></rdf:RDF></metadata><defs
     id="defs12" /><sodipodi:namedview
     pagecolor="#ffffff"
     bordercolor="#666666"
     borderopacity="1"
     objecttolerance="10"
     gridtolerance="10"
     guidetolerance="10"
     inkscape:pageopacity="0"
     inkscape:pageshadow="2"
     inkscape:window-width="1920"
     inkscape:window-height="1002"
     id="namedview10"
     showgrid="false"
     fit-margin-top="0"
     fit-margin-left="0"
     fit-margin-right="0"
     fit-margin-bottom="0"
     inkscape:zoom="6.552"
     inkscape:cx="48.556588"
     inkscape:cy="49.250067"
     inkscape:window-x="0"
     inkscape:window-y="41"
     inkscape:window-maximized="1"
     inkscape:current-layer="svg8" /><path
     d="m 28.859075,7.3 -3.8,3.8 c -1.4,1.4 -1.4,3.8 0,5.2 l 2.2,2.2 c -1.2,2.1 -2.1,4.3 -2.7,6.6 h -3 c -2,0 -3.7,1.7 -3.7,3.7 v 5.3 c 0,2 1.7,3.7 3.7,3.7 h 3 c 0.6,2.3 1.5,4.5 2.7,6.6 l -2.2,2.2 c -1.4,1.4 -1.4,3.8 0,5.2 l 3.8,3.8 c 1.4,1.4 3.8,1.4 5.2,0 l 2.2,-2.3 c 2.1,1.2 4.3,2.1 6.6,2.7 v 3 c 0,2 1.7,3.7 3.7,3.7 h 5.3 c 2,0 3.7,-1.7 3.7,-3.7 v -3 c 2.3,-0.6 4.5,-1.5 6.6,-2.7 l 2.2,2.2 c 1.4,1.4 3.8,1.4 5.2,0 l 3.8,-3.8 c 1.4,-1.4 1.4,-3.8 0,-5.2 l -2.1,-2.2 c 1.2,-2.1 2.1,-4.3 2.7,-6.6 h 3 c 2,0 3.7,-1.7 3.7,-3.7 v -5.3 c 0,-2 -1.7,-3.7 -3.7,-3.7 h -3 c -0.6,-2.3 -1.5,-4.5 -2.7,-6.6 l 2.2,-2.2 c 1.4,-1.4 1.4,-3.8 0,-5.2 l -3.9,-3.7 c -1.4,-1.4 -3.8,-1.4 -5.2,0 l -2.1,2.1 c -2.1,-1.2 -4.3,-2.1 -6.6,-2.7 v -3 c 0,-2 -1.7,-3.7 -3.7,-3.7 h -5.3 c -2,0 -3.7,1.7 -3.7,3.7 v 3 c -2.3,0.6 -4.5,1.5 -6.6,2.7 l -2.2,-2.1 c -1.4,-1.4 -3.8,-1.4 -5.3,0 z m 6,5.6 c 0.6,0.6 1.5,0.7 2.2,0.2 2.4,-1.6 5.1,-2.7 7.9,-3.3 0.8,-0.2 1.4,-0.9 1.4,-1.7 V 3.6 c 0,-0.1 0.1,-0.2 0.2,-0.2 h 5.3 c 0.1,0 0.2,0.1 0.2,0.2 V 8 c 0,0.8 0.6,1.6 1.4,1.7 2.9,0.6 5.5,1.7 7.9,3.3 0.7,0.5 1.6,0.4 2.2,-0.2 l 3.1,-3.1 c 0.1,-0.1 0.2,-0.1 0.3,0 l 3.8,3.8 c 0.1,0.1 0.1,0.2 0,0.3 l -3.1,3.1 c -0.6,0.6 -0.7,1.5 -0.2,2.2 1.6,2.4 2.7,5.1 3.3,7.9 0.2,0.8 0.9,1.4 1.7,1.4 h 4.4 c 0.1,0 0.2,0.1 0.2,0.2 v 5.3 c 0,0.1 -0.1,0.2 -0.2,0.2 h -4.4 c -0.8,0 -1.6,0.6 -1.7,1.4 -0.6,2.8 -1.7,5.5 -3.3,7.9 -0.5,0.7 -0.4,1.6 0.2,2.2 l 3.1,3.1 c 0.1,0.1 0.1,0.2 0,0.3 l -3.8,3.8 c -0.1,0.1 -0.2,0.1 -0.3,0 l -3.1,-3.1 c -0.6,-0.6 -1.5,-0.7 -2.2,-0.2 -2.4,1.6 -5.1,2.7 -7.9,3.3 -0.8,0.2 -1.4,0.9 -1.4,1.7 v 4.4 c 0,0.1 -0.1,0.2 -0.2,0.2 h -5.3 c -0.1,0 -0.2,-0.1 -0.2,-0.2 v -4.4 c 0,-0.8 -0.6,-1.6 -1.4,-1.7 -2.8,-0.6 -5.5,-1.7 -7.9,-3.3 -0.3,-0.2 -0.6,-0.3 -1,-0.3 -0.5,0 -0.9,0.2 -1.2,0.5 l -3.1,3.1 c -0.1,0.1 -0.2,0.1 -0.3,0 l -3.8,-3.8 c -0.1,-0.1 -0.1,-0.2 0,-0.3 l 3.1,-3.1 c 0.6,-0.6 0.7,-1.5 0.2,-2.2 -1.6,-2.4 -2.7,-5.1 -3.3,-7.9 -0.2,-0.8 -0.9,-1.4 -1.7,-1.4 h -4.4 c -0.1,0 -0.2,-0.1 -0.2,-0.2 v -5.3 c 0,-0.1 0.1,-0.2 0.2,-0.2 h 4.4 c 0.8,0 1.6,-0.6 1.7,-1.4 0.6,-2.9 1.7,-5.5 3.3,-7.9 0.5,-0.7 0.4,-1.6 -0.2,-2.2 l -3.1,-3.1 c -0.1,-0.1 -0.1,-0.2 0,-0.3 l 3.8,-3.8 c 0.1,-0.1 0.2,-0.1 0.3,0 z m 14.4,31.6 c 7.2,0 13.1,-5.9 13.1,-13.1 0,-7.2 -5.9,-13.2 -13.1,-13.2 -7.2,0 -13.1,5.9 -13.1,13.1 0,7.2 5.9,13.2 13.1,13.2 z m 0,-22.8 c 5.3,0 9.6,4.3 9.6,9.6 0,5.3 -4.3,9.6 -9.6,9.6 -5.3,0 -9.6,-4.3 -9.6,-9.6 0,-5.3 4.3,-9.6 9.6,-9.6 z m 8.3,62.7 c -0.7,-3.3 -3.3,-5.9 -6.6,-6.6 v -7.6 c 0,-1 -0.8,-1.8 -1.8,-1.8 -1,0 -1.8,0.8 -1.8,1.8 v 7.6 c -3.3,0.7 -5.9,3.3 -6.6,6.6 h -23.9 c -0.7,-3.3 -3.3,-6 -6.7,-6.6 -3.1000005,-0.6 -6.2000005,0.5 -8.2000005,2.9 -1.59999998,2 -2.29999998,4.5 -1.79999998,7.1 0.6,3.4 3.29999998,6.1 6.69999998,6.7 0.5,0.1 1.1,0.2 1.6,0.2 2.5000005,0 4.9000005,-1.1 6.6000005,-3.1 0.9,-1.1 1.5,-2.3 1.8,-3.7 h 24.1 c 0.8,3.9 4.2,6.8 8.3,6.8 4.1,0 7.5,-2.9 8.3,-6.8 h 24.1 c 0.8,3.9 4.2,6.8 8.3,6.8 4.7,0 8.5,-3.8 8.5,-8.5 0,-4.7 -3.8,-8.5 -8.5,-8.5 -4.1,0 -7.5,2.9 -8.3,6.8 h -24.1 z m -45.2,5 c -1.2,1.4 -3.0000005,2.1 -4.9000005,1.7 -1.9,-0.4 -3.6,-2 -3.9,-3.9 -0.3,-1.5 0.1,-3 1.1,-4.2 1,-1.2 2.4,-1.8 3.9,-1.8 0.3,0 0.7,0 1,0.1 1.9000005,0.4 3.6000005,2 3.9000005,3.9 0.3,1.5 -0.1,3 -1.1,4.2 z m 36.9,1.8 c -2.8,0 -5,-2.2 -5,-5 0,-2.8 2.2,-5 5,-5 2.8,0 5,2.2 5,5 0,2.8 -2.2,5 -5,5 z m 40.7,-10.1 c 2.8,0 5,2.2 5,5 0,2.8 -2.2,5 -5,5 -2.7,0 -4.8,-2.1 -5,-4.7 0,-0.1 0,-0.2 0,-0.3 0,-0.1 0,-0.2 0,-0.3 0.2,-2.6 2.4,-4.7 5,-4.7 z"
     id="path2"
     style="fill:#cacaca;fill-opacity:1" /></svg>
