<?xml version="1.0" encoding="UTF-8" standalone="no"?>
<svg
   xmlns:dc="http://purl.org/dc/elements/1.1/"
   xmlns:cc="http://creativecommons.org/ns#"
   xmlns:rdf="http://www.w3.org/1999/02/22-rdf-syntax-ns#"
   xmlns:svg="http://www.w3.org/2000/svg"
   xmlns="http://www.w3.org/2000/svg"
   xmlns:sodipodi="http://sodipodi.sourceforge.net/DTD/sodipodi-0.dtd"
   xmlns:inkscape="http://www.inkscape.org/namespaces/inkscape"
   viewBox="0 0 90 69.0625"
   x="0px"
   y="0px"
   version="1.1"
   id="svg8"
   sodipodi:docname="menu.svg"
   width="90"
   height="69.0625"
   inkscape:version="1.0.1 (3bc2e813f5, 2020-09-07)">
  <metadata
     id="metadata14">
    <rdf:RDF>
      <cc:Work
         rdf:about="">
        <dc:format>image/svg+xml</dc:format>
        <dc:type
           rdf:resource="http://purl.org/dc/dcmitype/StillImage" />
        <dc:title></dc:title>
      </cc:Work>
    </rdf:RDF>
  </metadata>
  <defs
     id="defs12" />
  <sodipodi:namedview
     pagecolor="#ffffff"
     bordercolor="#666666"
     borderopacity="1"
     objecttolerance="10"
     gridtolerance="10"
     guidetolerance="10"
     inkscape:pageopacity="0"
     inkscape:pageshadow="2"
     inkscape:window-width="1920"
     inkscape:window-height="1002"
     id="namedview10"
     showgrid="false"
     fit-margin-top="0"
     fit-margin-left="0"
     fit-margin-right="0"
     fit-margin-bottom="0"
     inkscape:zoom="6.552"
     inkscape:cx="45"
     inkscape:cy="32.793944"
     inkscape:window-x="0"
     inkscape:window-y="41"
     inkscape:window-maximized="1"
     inkscape:current-layer="svg8" />
  <path
     d="M 10.46875,0 C 4.6890267,0 0,4.689023 0,10.46875 v 48.125 C 0,64.373476 4.6890267,69.0625 10.46875,69.0625 h 69.0625 C 85.310976,69.0625 90,64.373476 90,58.59375 v -48.125 C 90,4.689023 85.310976,0 79.53125,0 Z m 0,3.125 h 69.0625 c 4.045806,0 7.34375,3.297946 7.34375,7.34375 V 13.3125 H 3.125 V 10.46875 C 3.125,6.422946 6.422944,3.125 10.46875,3.125 Z M 9.78125,17.90625 15.1875,23.375 9.78125,28.8125 7.0625,27.21875 11.09375,23.375 7.0625,19.46875 Z m 8.71875,7.75 h 9.0625 V 28.8125 H 18.5 Z"
     id="path2"
     style="fill:#cacaca;fill-opacity:1" />
</svg>
