<?xml version="1.0" encoding="UTF-8" standalone="no"?>
<svg
   xmlns:dc="http://purl.org/dc/elements/1.1/"
   xmlns:cc="http://creativecommons.org/ns#"
   xmlns:rdf="http://www.w3.org/1999/02/22-rdf-syntax-ns#"
   xmlns:svg="http://www.w3.org/2000/svg"
   xmlns="http://www.w3.org/2000/svg"
   xmlns:sodipodi="http://sodipodi.sourceforge.net/DTD/sodipodi-0.dtd"
   xmlns:inkscape="http://www.inkscape.org/namespaces/inkscape"
   viewBox="0 0 44 60"
   x="0px"
   y="0px"
   version="1.1"
   id="svg22"
   sodipodi:docname="parser.svg"
   width="44"
   height="60"
   inkscape:version="1.0.1 (3bc2e813f5, 2020-09-07)">
  <metadata
     id="metadata28">
    <rdf:RDF>
      <cc:Work
         rdf:about="">
        <dc:format>image/svg+xml</dc:format>
        <dc:type
           rdf:resource="http://purl.org/dc/dcmitype/StillImage" />
        <dc:title>message-sms-text</dc:title>
      </cc:Work>
    </rdf:RDF>
  </metadata>
  <defs
     id="defs26" />
  <sodipodi:namedview
     pagecolor="#ffffff"
     bordercolor="#666666"
     borderopacity="1"
     objecttolerance="10"
     gridtolerance="10"
     guidetolerance="10"
     inkscape:pageopacity="0"
     inkscape:pageshadow="2"
     inkscape:window-width="1920"
     inkscape:window-height="1002"
     id="namedview24"
     showgrid="false"
     inkscape:zoom="10.2375"
     inkscape:cx="45.987626"
     inkscape:cy="55.051552"
     inkscape:window-x="0"
     inkscape:window-y="41"
     inkscape:window-maximized="1"
     inkscape:current-layer="svg22"
     fit-margin-top="0"
     fit-margin-left="0"
     fit-margin-right="0"
     fit-margin-bottom="0" />
  <title
     id="title2">message-sms-text</title>
  <g
     data-name="Outline Icon"
     id="g16"
     transform="translate(-10,-2)"
     style="fill:#cacaca;fill-opacity:1">
    <path
       d="M 49,18 H 29 a 5.006,5.006 0 0 0 -5,5 v 12 a 5.006,5.006 0 0 0 5,5 h 3.32 l 2.832,4.53 a 1,1 0 0 0 1.7,0 L 39.68,40 H 49 a 5.006,5.006 0 0 0 5,-5 V 23 a 5.006,5.006 0 0 0 -5,-5 z m 3,17 a 3,3 0 0 1 -3,3 h -9.875 a 1,1 0 0 0 -0.848,0.47 L 36,42.113 33.723,38.47 A 1,1 0 0 0 32.875,38 H 29 A 3,3 0 0 1 26,35 V 23 a 3,3 0 0 1 3,-3 h 20 a 3,3 0 0 1 3,3 z"
       id="path4"
       style="fill:#cacaca;fill-opacity:1" />
    <path
       d="M 47,25 H 31 a 1,1 0 0 0 0,2 h 16 a 1,1 0 0 0 0,-2 z"
       id="path6"
       style="fill:#cacaca;fill-opacity:1" />
    <path
       d="M 47,30 H 31 a 1,1 0 0 0 0,2 h 16 a 1,1 0 0 0 0,-2 z"
       id="path8"
       style="fill:#cacaca;fill-opacity:1" />
    <path
       d="m 43,43 a 1,1 0 0 0 -1,1 v 5 H 12 V 13 h 30 v 2 a 1,1 0 0 0 2,0 V 8 A 6.006,6.006 0 0 0 38,2 H 16 a 6.006,6.006 0 0 0 -6,6 v 48 a 6.006,6.006 0 0 0 6,6 h 22 a 6.006,6.006 0 0 0 6,-6 V 44 A 1,1 0 0 0 43,43 Z M 16,4 h 22 a 4,4 0 0 1 4,4 v 3 H 12 V 8 A 4,4 0 0 1 16,4 Z M 38,60 H 16 a 4,4 0 0 1 -4,-4 v -5 h 30 v 5 a 4,4 0 0 1 -4,4 z"
       id="path10"
       style="fill:#cacaca;fill-opacity:1" />
    <path
       d="m 23.5,8.5 h 7 a 1,1 0 0 0 0,-2 h -7 a 1,1 0 0 0 0,2 z"
       id="path12"
       style="fill:#cacaca;fill-opacity:1" />
    <path
       d="M 27,52 A 3.5,3.5 0 1 0 30.5,55.5 3.5,3.5 0 0 0 27,52 Z m 0,5 A 1.5,1.5 0 1 1 28.5,55.5 1.5,1.5 0 0 1 27,57 Z"
       id="path14"
       style="fill:#cacaca;fill-opacity:1" />
  </g>
</svg>
