<?xml version="1.0" encoding="UTF-8" standalone="no"?>
<svg
   xmlns:dc="http://purl.org/dc/elements/1.1/"
   xmlns:cc="http://creativecommons.org/ns#"
   xmlns:rdf="http://www.w3.org/1999/02/22-rdf-syntax-ns#"
   xmlns:svg="http://www.w3.org/2000/svg"
   xmlns="http://www.w3.org/2000/svg"
   xmlns:sodipodi="http://sodipodi.sourceforge.net/DTD/sodipodi-0.dtd"
   xmlns:inkscape="http://www.inkscape.org/namespaces/inkscape"
   version="1.1"
   x="0px"
   y="0px"
   viewBox="0 0 44 82"
   xml:space="preserve"
   id="svg10"
   sodipodi:docname="noun_Security_2541339.svg"
   width="44"
   height="82"
   inkscape:version="1.0.1 (3bc2e813f5, 2020-09-07)"><metadata
     id="metadata16"><rdf:RDF><cc:Work
         rdf:about=""><dc:format>image/svg+xml</dc:format><dc:type
           rdf:resource="http://purl.org/dc/dcmitype/StillImage" /><dc:title></dc:title></cc:Work></rdf:RDF></metadata><defs
     id="defs14" /><sodipodi:namedview
     pagecolor="#ffffff"
     bordercolor="#666666"
     borderopacity="1"
     objecttolerance="10"
     gridtolerance="10"
     guidetolerance="10"
     inkscape:pageopacity="0"
     inkscape:pageshadow="2"
     inkscape:window-width="1920"
     inkscape:window-height="1009"
     id="namedview12"
     showgrid="false"
     fit-margin-top="0"
     fit-margin-left="0"
     fit-margin-right="0"
     fit-margin-bottom="0"
     inkscape:zoom="6.2146118"
     inkscape:cx="-3.2346332"
     inkscape:cy="43.594807"
     inkscape:window-x="0"
     inkscape:window-y="34"
     inkscape:window-maximized="1"
     inkscape:current-layer="svg10" /><path
     d="M 36,0 H 8 C 3.6,0 0,3.6 0,8 v 66 c 0,4.4 3.6,8 8,8 h 28 c 4.4,0 8,-3.6 8,-8 V 8 C 44,3.6 40.4,0 36,0 Z m 6,74 c 0,3.3 -2.7,6 -6,6 H 8 C 4.7,80 2,77.3 2,74 V 8 C 2,4.7 4.7,2 8,2 h 2 c 0.5,0 1,0.5 1,1 v 1 c 0,1.1 0.9,2 2,2 h 18 c 1.1,0 2,-0.9 2,-2 V 3 c 0,-0.5 0.5,-1 1,-1 h 2 c 3.3,0 6,2.7 6,6 z"
     id="path2"
     style="fill:#cacaca;fill-opacity:1" /><path
     d="m 33.5,30.1 c -0.3,-0.2 -0.7,-0.2 -1,0 -3.3,2 -6.6,1.4 -9.8,-1.9 -0.4,-0.4 -1,-0.4 -1.4,0 -3.2,3.2 -6.5,3.8 -9.8,1.9 -0.3,-0.2 -0.7,-0.2 -1,0 C 10.2,30.3 10,30.6 10,31 v 7 c 0,8.4 7,14.8 11.8,16 H 22 22.2 C 27,52.8 34,46.4 34,38 v -7 c 0,-0.4 -0.2,-0.7 -0.5,-0.9 z"
     id="path4"
     sodipodi:nodetypes="sccscssscccsss"
     style="fill:#cacaca;fill-opacity:1" /></svg>
