<?xml version="1.0" encoding="UTF-8" standalone="no"?>
<svg
   xmlns:dc="http://purl.org/dc/elements/1.1/"
   xmlns:cc="http://creativecommons.org/ns#"
   xmlns:rdf="http://www.w3.org/1999/02/22-rdf-syntax-ns#"
   xmlns:svg="http://www.w3.org/2000/svg"
   xmlns="http://www.w3.org/2000/svg"
   xmlns:sodipodi="http://sodipodi.sourceforge.net/DTD/sodipodi-0.dtd"
   xmlns:inkscape="http://www.inkscape.org/namespaces/inkscape"
   xml:space="preserve"
   version="1.1"
   style="image-rendering:optimizeQuality;shape-rendering:geometricPrecision;text-rendering:geometricPrecision"
   viewBox="0 0 717.14508 708.80035"
   x="0px"
   y="0px"
   fill-rule="evenodd"
   clip-rule="evenodd"
   id="svg14"
   sodipodi:docname="quickstart.svg"
   width="717.14508"
   height="708.80035"
   inkscape:version="1.0.1 (3bc2e813f5, 2020-09-07)"><metadata
     id="metadata18"><rdf:RDF><cc:Work
         rdf:about=""><dc:format>image/svg+xml</dc:format><dc:type
           rdf:resource="http://purl.org/dc/dcmitype/StillImage" /><dc:title></dc:title></cc:Work></rdf:RDF></metadata><sodipodi:namedview
     pagecolor="#ffffff"
     bordercolor="#666666"
     borderopacity="1"
     objecttolerance="10"
     gridtolerance="10"
     guidetolerance="10"
     inkscape:pageopacity="0"
     inkscape:pageshadow="2"
     inkscape:window-width="1920"
     inkscape:window-height="1002"
     id="namedview16"
     showgrid="false"
     fit-margin-top="0"
     fit-margin-left="0"
     fit-margin-right="0"
     fit-margin-bottom="0"
     inkscape:zoom="0.92411848"
     inkscape:cx="250.49117"
     inkscape:cy="592.72304"
     inkscape:window-x="0"
     inkscape:window-y="41"
     inkscape:window-maximized="1"
     inkscape:current-layer="svg14" /><defs
     id="defs4"><style
       type="text/css"
       id="style2">
   
    .fil0 {fill:black}
   
  </style></defs><g
     id="g8"
     transform="translate(-0.24752573)"
     style="fill:#cacaca;fill-opacity:1"><path
       class="fil0"
       d="m 368,282 c 24,-36 66,-76 119,-111 99,-65 200,-86 225,-48 21,33 -21,101 -97,160 -11,9 -24,18 -37,27 -53,35 -107,57 -150,64 l -4,-6 c 11,-6 23,-12 34,-20 64,-41 103,-94 88,-117 -15,-22 -78,-7 -142,35 -11,7 -22,15 -32,23 z M 438,18 c 10,0 19,1 22,12 4,10 -3,17 -10,23 2,9 4,19 -5,25 -9,7 -18,3 -26,-3 -7,6 -16,10 -25,3 -9,-6 -8,-16 -5,-25 -8,-6 -14,-13 -11,-23 4,-11 13,-12 23,-12 3,-10 7,-18 18,-18 11,0 16,8 19,18 z m -12,16 c 25,0 24,-2 4,13 7,23 9,22 -11,7 -20,15 -18,16 -10,-7 -20,-15 -21,-13 4,-13 8,-23 5,-23 13,0 z m 202,507 c 16,0 33,-1 50,-1 13,0 32,-1 37,15 5,16 -11,26 -22,34 -13,10 -27,19 -40,29 5,15 11,31 16,47 4,12 11,30 -3,40 -13,10 -28,-2 -39,-10 -13,-10 -26,-20 -40,-30 -13,10 -26,20 -39,30 -11,8 -26,20 -39,10 -14,-10 -7,-28 -3,-40 5,-16 11,-32 16,-47 -14,-10 -27,-19 -41,-29 -10,-8 -26,-18 -21,-34 5,-16 24,-15 37,-15 17,0 33,1 50,1 5,-16 10,-32 15,-48 4,-12 9,-31 25,-31 17,0 22,19 26,31 5,16 10,32 15,48 z m -12,16 c 110,0 107,-10 17,54 35,105 43,99 -46,34 -89,65 -80,71 -45,-34 -90,-64 -93,-54 17,-54 34,-104 23,-104 57,0 z M 104,236 c 18,-1 43,-1 48,14 5,15 -16,29 -31,39 6,17 15,40 2,49 -13,10 -33,-5 -47,-17 -14,12 -34,27 -46,17 -13,-9 -5,-32 2,-49 -15,-10 -36,-24 -31,-39 5,-15 30,-15 48,-14 4,-17 11,-41 27,-41 16,0 23,24 28,41 z m -13,17 c 59,0 58,-5 10,29 18,56 23,53 -25,18 -47,35 -43,38 -24,-18 -48,-34 -50,-29 9,-29 18,-56 12,-56 30,0 z m 290,218 c -12,-19 -37,-24 -56,-12 -18,13 -24,37 -12,56 13,19 38,24 56,12 19,-12 24,-37 12,-56 z M 17,530 v 0 c 3,4 9,6 14,3 l 93,-61 c 4,-3 6,-9 3,-14 v 0 c -3,-5 -10,-6 -14,-3 l -93,61 c -5,3 -6,9 -3,14 z m 60,64 v 0 c -3,-5 -1,-11 3,-14 l 118,-77 c 5,-3 11,-2 14,2 v 0 c 3,5 2,11 -3,14 L 91,597 c -4,3 -10,1 -14,-3 z M 233,491 c 3,5 2,11 -2,14 -5,3 -11,2 -14,-3 -3,-4 -2,-11 3,-13 4,-3 10,-2 13,2 z m 140,-91 v 0 c -3,-4 -9,-5 -14,-2 l -118,77 c -5,3 -6,9 -3,14 v 0 c 3,4 9,6 14,3 l 118,-78 c 4,-3 6,-9 3,-14 z m -53,-17 c -7,-11 -23,-15 -35,-7 -11,7 -15,23 -7,35 8,11 23,15 35,7 11,-8 15,-23 7,-35 z m -51,33 v 0 c -7,-11 -23,-14 -34,-7 L 87,506 c -12,8 -15,23 -8,35 v 0 c 8,11 23,14 35,7 l 148,-97 c 11,-8 15,-23 7,-35 z m -93,-38 c 6,11 3,25 -7,32 -11,7 -25,4 -32,-7 -7,-10 -4,-25 7,-31 10,-7 25,-4 32,6 z m 149,-50 v 0 c 3,5 2,11 -3,14 L 149,455 c -4,3 -10,2 -14,-3 v 0 c -3,-4 -1,-11 3,-14 L 311,325 c 5,-3 11,-2 14,3 z m 204,-86 c 9,14 -28,54 -82,89 -54,36 -106,54 -115,40 -8,-13 28,-53 83,-89 54,-35 106,-53 114,-40 z m -72,-75 c -85,-20 -239,30 -217,63 12,18 86,-23 131,15 24,-29 55,-56 86,-78 z m 113,172 c -17,86 -123,207 -145,173 -12,-17 55,-68 38,-125 37,-11 74,-29 107,-48 z m 96,-186 c 10,16 6,38 -10,49 -16,10 -38,6 -49,-10 -10,-17 -6,-38 10,-49 17,-11 38,-6 49,10 z"
       id="path6"
       style="fill:#cacaca;fill-opacity:1" /></g></svg>
