<?xml version="1.0" encoding="UTF-8" standalone="no"?>
<svg
   xmlns:dc="http://purl.org/dc/elements/1.1/"
   xmlns:cc="http://creativecommons.org/ns#"
   xmlns:rdf="http://www.w3.org/1999/02/22-rdf-syntax-ns#"
   xmlns:svg="http://www.w3.org/2000/svg"
   xmlns="http://www.w3.org/2000/svg"
   xmlns:sodipodi="http://sodipodi.sourceforge.net/DTD/sodipodi-0.dtd"
   xmlns:inkscape="http://www.inkscape.org/namespaces/inkscape"
   version="1.1"
   x="0px"
   y="0px"
   viewBox="0 0 62 57.965"
   xml:space="preserve"
   id="svg14"
   sodipodi:docname="session.svg"
   width="62"
   height="57.965"
   inkscape:version="1.0.1 (3bc2e813f5, 2020-09-07)"><metadata
     id="metadata20"><rdf:RDF><cc:Work
         rdf:about=""><dc:format>image/svg+xml</dc:format><dc:type
           rdf:resource="http://purl.org/dc/dcmitype/StillImage" /><dc:title></dc:title></cc:Work></rdf:RDF></metadata><defs
     id="defs18" /><sodipodi:namedview
     pagecolor="#ffffff"
     bordercolor="#666666"
     borderopacity="1"
     objecttolerance="10"
     gridtolerance="10"
     guidetolerance="10"
     inkscape:pageopacity="0"
     inkscape:pageshadow="2"
     inkscape:window-width="1920"
     inkscape:window-height="1002"
     id="namedview16"
     showgrid="false"
     fit-margin-top="0"
     fit-margin-left="0"
     fit-margin-right="0"
     fit-margin-bottom="0"
     inkscape:zoom="7.0470244"
     inkscape:cx="26.935284"
     inkscape:cy="42.08903"
     inkscape:window-x="0"
     inkscape:window-y="41"
     inkscape:window-maximized="1"
     inkscape:current-layer="svg14" /><g
     id="g8"
     transform="translate(-1,-3.035)"
     style="fill:#cacaca;fill-opacity:1"><path
       d="m 5.39,15.396 c 0.144,0.463 0.336,0.924 0.572,1.37 l 0.258,0.486 -1.13,1.979 1.748,1.749 1.979,-1.129 0.486,0.257 c 0.447,0.237 0.908,0.429 1.37,0.571 l 0.524,0.162 0.601,2.193 h 2.473 l 0.601,-2.193 0.524,-0.162 c 0.464,-0.143 0.925,-0.335 1.37,-0.571 l 0.485,-0.257 1.98,1.129 1.748,-1.749 -1.13,-1.979 0.258,-0.486 c 0.236,-0.446 0.429,-0.907 0.572,-1.37 l 0.161,-0.525 2.193,-0.6 V 11.797 L 20.84,11.198 20.678,10.673 C 20.535,10.21 20.343,9.749 20.107,9.304 L 19.849,8.818 20.979,6.839 19.232,5.09 17.252,6.219 16.767,5.962 C 16.32,5.725 15.859,5.533 15.397,5.39 L 14.873,5.228 14.272,3.035 H 11.799 L 11.198,5.228 10.674,5.39 C 10.214,5.532 9.753,5.724 9.304,5.962 L 8.817,6.219 6.838,5.09 5.09,6.839 6.22,8.818 5.962,9.305 C 5.726,9.75 5.533,10.211 5.391,10.674 l -0.162,0.525 -2.193,0.599 v 2.474 l 2.193,0.6 z m 7.645,-7.361 c 2.761,0 5,2.239 5,5 0,2.761 -2.239,5 -5,5 -2.761,0 -5,-2.239 -5,-5 0,-2.761 2.239,-5 5,-5 z"
       id="path2"
       style="fill:#cacaca;fill-opacity:1" /><path
       d="m 52,43 c -4.963,0 -9,4.037 -9,9 0,4.963 4.037,9 9,9 4.963,0 9,-4.037 9,-9 0,-4.963 -4.037,-9 -9,-9 z m -3,14.414 -2.707,-2.707 1.414,-1.414 1.293,1.293 7.293,-7.293 1.414,1.414 z"
       id="path4"
       style="fill:#cacaca;fill-opacity:1" /><path
       d="M 56,12 H 53 V 11 C 53,9.346 51.654,8 50,8 H 34 c -1.654,0 -3,1.346 -3,3 v 1 h -6 v 2 h 6 v 1 c 0,1.654 1.346,3 3,3 h 16 c 1.654,0 3,-1.346 3,-3 v -1 h 3 c 2.757,0 5,2.243 5,5 v 7 c 0,2.757 -2.243,5 -5,5 H 43 v -1 c 0,-1.654 -1.346,-3 -3,-3 H 24 c -1.654,0 -3,1.346 -3,3 v 1 H 8 c -3.859,0 -7,3.141 -7,7 v 8 c 0,3.859 3.141,7 7,7 h 3 v 1 c 0,1.654 1.346,3 3,3 h 16 c 1.654,0 3,-1.346 3,-3 v -1 h 8.05 C 41.02,52.67 41,52.338 41,52 c 0,-0.338 0.021,-0.67 0.05,-1 H 33 v -1 c 0,-1.654 -1.346,-3 -3,-3 H 14 c -1.654,0 -3,1.346 -3,3 v 1 H 8 C 5.243,51 3,48.757 3,46 v -8 c 0,-2.757 2.243,-5 5,-5 h 13 v 1 c 0,1.654 1.346,3 3,3 h 16 c 1.654,0 3,-1.346 3,-3 v -1 h 13 c 3.859,0 7,-3.14 7,-7 v -7 c 0,-3.86 -3.141,-7 -7,-7 z m -19,2 h -2 v -2 h 2 z m 4,0 h -2 v -2 h 2 z m 4,0 h -2 v -2 h 2 z m 4,0 h -2 v -2 h 2 z M 27,51 h 2 v 2 h -2 z m -4,0 h 2 v 2 h -2 z m -4,0 h 2 v 2 h -2 z m -4,0 h 2 v 2 H 15 Z M 27,33 h -2 v -2 h 2 z m 4,0 h -2 v -2 h 2 z m 4,0 h -2 v -2 h 2 z m 4,0 h -2 v -2 h 2 z"
       id="path6"
       style="fill:#cacaca;fill-opacity:1" /></g></svg>
