<?xml version="1.0" encoding="UTF-8" standalone="no"?>
<svg
   xmlns:dc="http://purl.org/dc/elements/1.1/"
   xmlns:cc="http://creativecommons.org/ns#"
   xmlns:rdf="http://www.w3.org/1999/02/22-rdf-syntax-ns#"
   xmlns:svg="http://www.w3.org/2000/svg"
   xmlns="http://www.w3.org/2000/svg"
   xmlns:sodipodi="http://sodipodi.sourceforge.net/DTD/sodipodi-0.dtd"
   xmlns:inkscape="http://www.inkscape.org/namespaces/inkscape"
   data-name="Layer 1"
   viewBox="0 0 124.01566 128"
   x="0px"
   y="0px"
   version="1.1"
   id="svg54"
   sodipodi:docname="terminology.svg"
   width="124.01566"
   height="128"
   inkscape:version="1.0.1 (3bc2e813f5, 2020-09-07)">
  <metadata
     id="metadata60">
    <rdf:RDF>
      <cc:Work
         rdf:about="">
        <dc:format>image/svg+xml</dc:format>
        <dc:type
           rdf:resource="http://purl.org/dc/dcmitype/StillImage" />
        <dc:title>miscellaneous47 expandlines</dc:title>
      </cc:Work>
    </rdf:RDF>
  </metadata>
  <defs
     id="defs58" />
  <sodipodi:namedview
     pagecolor="#ffffff"
     bordercolor="#666666"
     borderopacity="1"
     objecttolerance="10"
     gridtolerance="10"
     guidetolerance="10"
     inkscape:pageopacity="0"
     inkscape:pageshadow="2"
     inkscape:window-width="1920"
     inkscape:window-height="1002"
     id="namedview56"
     showgrid="false"
     fit-margin-top="0"
     fit-margin-left="0"
     fit-margin-right="0"
     fit-margin-bottom="0"
     inkscape:zoom="5.11875"
     inkscape:cx="45.98624"
     inkscape:cy="50.245614"
     inkscape:window-x="0"
     inkscape:window-y="41"
     inkscape:window-maximized="1"
     inkscape:current-layer="svg54" />
  <title
     id="title2">miscellaneous47 expandlines</title>
  <path
     d="m 19.327832,111.07 h -10.64 a 8.28,8.28 0 0 0 -8.68000004,8.63 v 6.3 a 2,2 0 0 0 4.00000004,0 v -6.3 c 0,-2.91 1.75,-4.64 4.68,-4.64 h 10.64 a 4.33,4.33 0 0 1 4.68,4.64 v 6.3 a 2,2 0 0 0 4,0 v -6.3 a 8.28,8.28 0 0 0 -8.68,-8.63 z"
     id="path4"
     style="fill:#cacaca;fill-opacity:1" />
  <path
     d="m 14.007832,107.08 a 8,8 0 1 0 -8,-8 8,8 0 0 0 8,8 z m 0,-12 a 4,4 0 1 1 -4,4 4,4 0 0 1 4,-3.95 z"
     id="path6"
     style="fill:#cacaca;fill-opacity:1" />
  <path
     d="m 51.327832,111.07 h -10.64 a 8.28,8.28 0 0 0 -8.68,8.63 v 6.3 a 2,2 0 0 0 4,0 v -6.3 c 0,-2.91 1.75,-4.64 4.68,-4.64 h 10.64 a 4.33,4.33 0 0 1 4.68,4.64 v 6.3 a 2,2 0 0 0 4,0 v -6.3 a 8.28,8.28 0 0 0 -8.68,-8.63 z"
     id="path8"
     style="fill:#cacaca;fill-opacity:1" />
  <path
     d="m 38.007832,99.11 a 8,8 0 1 0 8,-8 8,8 0 0 0 -8,8 z m 12,0 a 4,4 0 1 1 -4,-4 4,4 0 0 1 4,4 z"
     id="path10"
     style="fill:#cacaca;fill-opacity:1" />
  <path
     d="m 115.32783,111.07 h -10.64 a 8.28,8.28 0 0 0 -8.679998,8.63 v 6.3 a 2,2 0 0 0 3.999998,0 v -6.3 c 0,-2.91 1.75,-4.64 4.68,-4.64 h 10.64 a 4.33,4.33 0 0 1 4.68,4.64 v 6.3 a 2,2 0 0 0 4,0 v -6.3 a 8.28,8.28 0 0 0 -8.68,-8.63 z"
     id="path12"
     style="fill:#cacaca;fill-opacity:1" />
  <path
     d="m 83.327832,111.07 h -10.64 a 8.28,8.28 0 0 0 -8.68,8.63 v 6.3 a 2,2 0 0 0 4,0 v -6.3 c 0,-2.91 1.75,-4.64 4.68,-4.64 h 10.64 a 4.33,4.33 0 0 1 4.68,4.64 v 6.3 a 2,2 0 0 0 4,0 v -6.3 a 8.28,8.28 0 0 0 -8.68,-8.63 z"
     id="path14"
     style="fill:#cacaca;fill-opacity:1" />
  <path
     d="m 70.007832,99.11 a 8,8 0 1 0 8,-8 8,8 0 0 0 -8,8 z m 12,0 a 4,4 0 1 1 -4,-4 4,4 0 0 1 4,4 z"
     id="path16"
     style="fill:#cacaca;fill-opacity:1" />
  <path
     d="m 102.00783,99.11 a 8,8 0 1 0 8,-8 8,8 0 0 0 -8,8 z m 12,0 a 4,4 0 1 1 -4,-4 4,4 0 0 1 4,4 z"
     id="path18"
     style="fill:#cacaca;fill-opacity:1" />
  <path
     d="m 43.007832,76.7 a 2,2 0 0 0 2,-2 V 64.53 c 0,-6.74 5.72,-7.75 9.13,-7.75 h 0.14 a 16.08,16.08 0 0 1 -4.35,-3.52 c -5.59,1.31 -8.92,5.38 -8.92,11.27 v 10.18 a 2,2 0 0 0 2,1.99 z"
     id="path20"
     style="fill:#cacaca;fill-opacity:1" />
  <path
     d="m 74.087832,53.25 a 16.08,16.08 0 0 1 -4.35,3.52 h 0.14 c 3.41,0 9.13,1 9.13,7.75 v 10.19 a 2,2 0 0 0 4,0 V 64.53 c 0,-5.89 -3.33,-9.96 -8.92,-11.28 z"
     id="path22"
     style="fill:#cacaca;fill-opacity:1" />
  <path
     d="m 74.007832,42.83 a 12,12 0 1 0 -12,12 12,12 0 0 0 12,-12 z m -20,0 a 8,8 0 1 1 8,8 8,8 0 0 1 -8,-8 z"
     id="path24"
     style="fill:#cacaca;fill-opacity:1" />
  <path
     d="m 35.007832,53.79 a 2,2 0 0 1 2,-2 h 4 a 2,2 0 1 0 0,-4 h -4 a 6,6 0 0 0 -6,6 v 12 a 2,2 0 0 0 4,0 z"
     id="path26"
     style="fill:#cacaca;fill-opacity:1" />
  <path
     d="m 94.007832,53.79 a 6,6 0 0 0 -6,-6 h -4 a 2,2 0 1 0 0,4 h 4 a 2,2 0 0 1 2,2 v 12 a 2,2 0 0 0 4,0 z"
     id="path28"
     style="fill:#cacaca;fill-opacity:1" />
  <path
     d="m 101.50783,82 a 2,2 0 0 0 -1.999998,-2 h -75 a 2,2 0 0 0 0,4 h 75 a 2,2 0 0 0 1.999998,-2 z"
     id="path30"
     style="fill:#cacaca;fill-opacity:1" />
  <ellipse
     cx="33.007832"
     cy="71.720001"
     rx="2"
     ry="1.99"
     id="ellipse32"
     style="fill:#cacaca;fill-opacity:1" />
  <ellipse
     cx="92.007835"
     cy="71.720001"
     rx="2"
     ry="1.99"
     id="ellipse34"
     style="fill:#cacaca;fill-opacity:1" />
  <path
     d="m 44.007832,12 h -6 a 2,2 0 1 0 0,4 h 6 a 2,2 0 1 0 0,-4 z"
     id="path36"
     style="fill:#cacaca;fill-opacity:1" />
  <path
     d="m 58.007832,12 h -6 a 2,2 0 1 0 0,4 h 6 a 2,2 0 1 0 0,-4 z"
     id="path38"
     style="fill:#cacaca;fill-opacity:1" />
  <path
     d="m 72.007832,12 h -6 a 2,2 0 1 0 0,4 h 6 a 2,2 0 1 0 0,-4 z"
     id="path40"
     style="fill:#cacaca;fill-opacity:1" />
  <path
     d="m 29.007832,21.91 a 2,2 0 0 0 2,2 h 6 a 2,2 0 1 0 0,-4 h -6 a 2,2 0 0 0 -2,2 z"
     id="path42"
     style="fill:#cacaca;fill-opacity:1" />
  <path
     d="m 43.007832,21.91 a 2,2 0 0 0 2,2 h 6 a 2,2 0 1 0 0,-4 h -6 a 2,2 0 0 0 -2,2 z"
     id="path44"
     style="fill:#cacaca;fill-opacity:1" />
  <path
     d="m 57.007832,21.91 a 2,2 0 0 0 2,2 h 6 a 2,2 0 1 0 0,-4 h -6 a 2,2 0 0 0 -2,2 z"
     id="path46"
     style="fill:#cacaca;fill-opacity:1" />
  <path
     d="m 20.007832,59.77 h 7 v -4 h -7 a 2,2 0 0 1 -2,-2 V 6 a 2,2 0 0 1 2,-2 h 83.999998 a 2,2 0 0 1 2,2 v 47.79 a 2,2 0 0 1 -2,2 h -5.999998 v 4 h 5.999998 a 6,6 0 0 0 6,-6 V 6 a 6,6 0 0 0 -6,-6 H 20.007832 a 6,6 0 0 0 -6,6 v 47.79 a 6,6 0 0 0 6,5.98 z"
     id="path48"
     style="fill:#cacaca;fill-opacity:1" />
</svg>
